<?xml version="1.0" encoding="utf-8"?>
<!-- Generator: Adobe Illustrator 16.0.0, SVG Export Plug-In . SVG Version: 6.00 Build 0)  -->
<!DOCTYPE svg PUBLIC "-//W3C//DTD SVG 1.1//EN" "http://www.w3.org/Graphics/SVG/1.1/DTD/svg11.dtd">
<svg version="1.1" id="Layer_1" xmlns="http://www.w3.org/2000/svg" xmlns:xlink="http://www.w3.org/1999/xlink" x="0px" y="0px"
	 width="100px" height="100px" viewBox="181 218.048 100 100" enable-background="new 181 218.048 100 100" xml:space="preserve">
<path id="refresh-2-icon" fill="#311B92" d="M212.161,232.427c-12.302,7.627-19.346,20.492-20.03,33.932H181l17.847,17.937
	l17.937-17.937h-11.026c0.652-8.899,5.409-17.311,13.571-22.372c13.541-8.397,31.326-4.228,39.724,9.313
	c8.397,13.542,4.228,31.328-9.315,39.723c-12.392,7.684-28.336,4.844-37.39-6.072l-9.562,9.744
	c13.457,15.191,36.287,18.945,54.119,7.887c19.926-12.355,26.062-38.524,13.705-58.449
	C258.255,226.208,232.086,220.071,212.161,232.427z"/>
</svg>
